<?xml version="1.0" encoding="utf-8"?>
<!-- Generator: Adobe Illustrator 21.0.2, SVG Export Plug-In . SVG Version: 6.00 Build 0)  -->
<svg version="1.1" id="Layer_1" xmlns="http://www.w3.org/2000/svg" xmlns:xlink="http://www.w3.org/1999/xlink" x="0px" y="0px"
	 viewBox="0 0 600 600" style="enable-background:new 0 0 600 600;" xml:space="preserve">
<style type="text/css">
	.st0{fill:url(#SVGID_1_);}
	.st1{fill:none;stroke:#CECECE;stroke-width:4;stroke-miterlimit:10;}
	.st2{fill:none;stroke:#FFFFFF;stroke-width:5;stroke-miterlimit:10;}
	.st3{fill:none;stroke:#FFFFFF;stroke-width:4;stroke-miterlimit:10;}
	.st4{fill:#FFFFFF;}
</style>
<g id="Layer_1_1_">
</g>
<g id="Background">
	
		<linearGradient id="SVGID_1_" gradientUnits="userSpaceOnUse" x1="302.25" y1="614.8" x2="302.25" y2="-25.3" gradientTransform="matrix(1 0 0 -1 0 600)">
		<stop  offset="0" style="stop-color:#6FC6FF"/>
		<stop  offset="1" style="stop-color:#00B16E"/>
	</linearGradient>
	<rect x="-17.8" y="-14.8" class="st0" width="640.1" height="640.1"/>
</g>
<g id="air_balloon">
	<g id="Layer_5">
		<path class="st1" d="M300.1,161.4c-62.8,0-138.3,73.4-113.6,157c8.4,28.6,17.5,53.2,31.3,76.1c13.1,21.7,23.4,37.9,34,50.8
			c9.3,11.3,16.2,18.2,26.2,26.6c0.6-0.4,1.2-0.8,1.7-1.1c7.6-4.3,17.5-4.5,25.8-2.8c2.3,0.5,8.9,2.4,12.8,5.4
			c12.6-12.9,15.7-16.1,25-27.6c9.2-11.4,14.4-18.7,26.3-36.8c16.9-25.7,33.7-50,44.2-90.6C434.3,239.8,362.9,161.4,300.1,161.4z"/>
		<path class="st1" d="M308.8,539.3h-19.5c-6.6,0-12-5.4-12-12v-19.5c0-6.6,5.4-12,12-12h19.5c6.6,0,12,5.4,12,12v19.5
			C320.8,533.8,315.4,539.3,308.8,539.3z"/>
	</g>
	<path class="st2" d="M302.8,159.2c-62.8,0-138.3,73.4-113.6,157c8.4,28.6,17.5,53.2,31.3,76.1c13.1,21.7,23.4,37.9,34,50.8
		c9.3,11.3,16.2,18.2,26.2,26.6c0.6-0.4,1.2-0.8,1.7-1.1c7.6-4.3,17.5-4.5,25.8-2.8c2.3,0.5,8.9,2.4,12.8,5.4
		c12.6-12.9,15.7-16.1,25-27.6c9.2-11.4,14.4-18.7,26.3-36.8c16.9-25.7,33.7-50,44.2-90.6C437,237.5,365.6,159.2,302.8,159.2z"/>
	<path class="st3" d="M311.5,537H292c-6.6,0-12-5.4-12-12v-19.5c0-6.6,5.4-12,12-12h19.5c6.6,0,12,5.4,12,12V525
		C323.5,531.6,318.1,537,311.5,537z"/>
</g>
<g id="Layer_6">
	<g>
		<g id="Woosh_3_">
			<path class="st1" d="M153.7,183.6c-0.6-1.3-1.3-1.5-2.4-0.9c-9.2,4.7-16.9,4.4-23.7,0.7c-7.5-4-13.3-11.9-17.8-19.3
				c-3.6-5.9-5.3-8.8-8.9-14.7c-4.9-7-8.5-18-6.7-26.6c3.4-15.8,23-26.6,37.9-27.4c5.5,0,10,1.4,13.6,4.2c0.9,0.7,1.1,2.3,0.3,3.2
				c-0.8,0.9-2.4,1.1-3.3,0.4c-2.8-2.3-6.4-3.4-10.7-3.2c-13.7,0.4-29,10.4-33.2,23.6c-1.8,8.1,1.7,16.6,5.8,23.5
				c3.5,5.9,5.2,8.9,8.7,14.8c3.9,6.5,9.2,14.1,15.7,17.6c5.5,3,12.1,3.3,20.2-0.8c3.1-1.6,6.3,0,7.8,3.3
				C158.4,184.6,155.1,186.3,153.7,183.6z M172.3,160.9c0.2-1.2-0.5-2.5-1.6-2.8c-1-0.3-2.1,0.5-2.3,1.7c-1,6.7-4.5,11.3-9.7,14.2
				c-0.9,0.6-1.3,1.9-0.6,3c0.6,1,1.8,1.5,2.7,1C166.8,174.4,171,168.9,172.3,160.9z"/>
			<path class="st1" d="M188,164.2c-9.4-25.6-18.8-51.2-28.2-76.9c-1.1-3,0.6-6.4,3.7-7.5c10.9-3.6,21.7-7,32.7-10
				c26.5-7.3,37.5,39.9,12.2,46.3c-4.5,1.1-16.6,4.8-16.6,4.8c-1,0.3-1.6,1.4-1.2,2.5c0.9,2.8-3.1,4.1-4,1.3
				c-1.1-3.4,0.6-7.1,3.8-8.1c0,0,12.3-3.6,16.8-4.8c19.9-5.5,10.8-42.2-9.9-37.6c-10.9,3-21.6,6.3-32.4,9.9c-0.8,0.3-1,1-0.8,1.7
				c9.1,25.7,18.2,51.4,27.3,77.2c0.4,1.2,0,2.5-1,2.8C189.6,166.1,188.5,165.4,188,164.2z M202.8,124.8c-2.1-2.1,0.6-5.4,2.7-3.3
				c9.5,9.1,18.5,18.6,27.1,28.6c1.9,2.1-0.7,5.1-2.5,3.1C221.5,143.2,212.4,133.8,202.8,124.8z"/>
			<path class="st1" d="M273.4,146.8c-18,2-28-17.1-30.1-32.3c-1.1-6.9-1.7-10.3-2.8-17.2c-4.1-21.8,7.5-38.2,29.9-40.1
				c22.4-1.9,36.7,12.3,36.3,34.5c0,7,0,10.5,0,17.4c0.2,14.1-4.1,35.9-22.2,36.8c-2.5,0.3-3-4.2-0.5-4.5
				c15.4-2.4,19.3-18.9,18.5-32.3c-0.1-7-0.1-10.5-0.2-17.4c0.2-19.5-11.8-31.7-31.5-30s-29.6,15.7-26,34.9
				c1.1,6.9,1.6,10.3,2.7,17.2c2,12.2,10,30.7,25.5,28.5c3.1-0.4,6.5,1.4,6.8,6c0.2,2.9-3.3,3.1-3.7,0.3
				C275.9,147.1,275,146.6,273.4,146.8z"/>
			<path class="st1" d="M345.3,142.8c-7.3-28.7-16.5-56.6-27.7-84c-1.1-2.7,3.2-4.4,4.4-1.7c10.9,27.6,19.8,55.5,26.9,84.3
				c0.9,3.5,3.5,2.2,3.8,0.2c3.3-25.3,6.6-50.5,9.9-75.8c0.9-7.1,11.5-7.8,13.5-0.9c7,27.9,12.1,55.9,15.4,84.5
				c0.4,3,3.2,2.5,3.7,0.4c6.4-24.8,12.8-49.5,19.2-74.3c0.9-3.5,4.6-5.6,8.3-4.6c3.1,0.9,1.9,5.2-1.2,4.3c-1-0.3-2.2,0.3-2.5,1.5
				c-6.7,24.7-13.4,49.4-20.1,74c-1.9,6.9-10.4,7.1-11.2-0.4c-3.5-28.5-8.9-56.5-16-84.3c-0.8-2.1-4.1-2-4.5,0.4
				c-3.6,25.2-7.1,50.5-10.7,75.7C355.4,149.3,347.1,150.6,345.3,142.8z"/>
			<path class="st1" d="M479.8,98.4c0.9-2.1-1.9-4.1-3.8-2.5c-21.2,19.8-40.7,40.7-58.9,63.2c-2.2,2.9-5.2,2.9-7,1.8
				c-1.4-0.8-2-2.4-1-3.8c1.4-1.8,2.8-0.2,3.4,0s1.3-0.1,1.8-0.8c18.1-22.7,37.4-43.7,58.4-63.7c5.3-5,14.3,1.2,11.3,7.7
				c-10.5,23.2-21.1,46.5-31.6,69.7c-1,2.1,1.3,3.8,2.9,2.3c20.8-20.3,42.6-38.8,66-56c2.7-2,6.1-1.1,8.2,0.4
				c1.9,1.3,2.7,3.4,0.9,4.6c-1.9,1.3-3.3-0.8-3.9-1.2c-0.7-0.4-1.6-0.5-2.2,0c-23.5,17-45.6,35.3-66.6,55.3
				c-4.9,4.7-11.8-0.3-8.9-7C459.2,145.1,469.5,121.8,479.8,98.4z"/>
		</g>
	</g>
</g>
<g id="font">
	<g>
		<g id="Woosh_4_">
			<path class="st4" d="M154.1,186.4c-0.7-1.3-1.3-1.6-2.5-1c-9.2,4.7-17,4.4-24,0.6c-7.7-4.2-13.7-12.3-18.3-19.9
				c-3.7-6-5.6-9.1-9.3-15.1c-5-7.2-8.9-18.5-7.1-27.3c3.2-16.2,23-27.2,38.1-28c5.5,0,10.2,1.5,13.8,4.4c0.9,0.8,1.1,2.4,0.4,3.3
				c-0.8,0.9-2.4,1.2-3.3,0.4c-2.9-2.4-6.5-3.5-10.9-3.3c-13.9,0.8-29.5,10.2-33.4,24.1c-1.8,8.3,2,17.1,6.2,24.1
				c3.6,6.1,5.5,9.1,9.1,15.2c4,6.7,9.5,14.5,16.2,18.1c5.7,3.1,12.3,3.4,20.4-0.7c3.2-1.6,6.3,0.1,8,3.4
				C158.9,187.6,155.6,189.2,154.1,186.4z M172.6,163.2c0.2-1.2-0.6-2.6-1.7-2.9c-1-0.3-2.1,0.5-2.3,1.7c-0.9,6.8-4.4,11.6-9.6,14.5
				c-0.9,0.6-1.3,1.9-0.6,3.1c0.6,1,1.9,1.6,2.8,1C167.3,177.1,171.4,171.5,172.6,163.2z"/>
			<path class="st4" d="M188.5,166.8c-9.8-26.4-19.5-52.8-29.3-79.2c-1.1-3.1,0.5-6.5,3.7-7.7c11-3.7,21.9-7.1,33.1-10.2
				c26.9-7.4,38.3,41.2,12.7,47.7c-4.5,1.1-16.7,4.9-16.7,4.9c-1,0.3-1.6,1.5-1.2,2.6c0.9,2.9-3,4.2-4,1.3c-1.2-3.5,0.5-7.3,3.8-8.3
				c0,0,12.4-3.6,16.9-4.9c19.7-5.7,10.6-44.4-10.3-38.7c-11.1,3.1-21.9,6.5-32.7,10.1c-0.8,0.3-1.1,1.1-0.8,1.7
				c9.5,26.5,18.9,53,28.4,79.5c0.4,1.2,0,2.5-1,2.9C190.2,168.7,189,168,188.5,166.8z M203.1,126.2c-2.1-2.1,0.5-5.5,2.7-3.4
				c9.6,9.4,18.8,19.2,27.5,29.5c1.9,2.2-0.7,5.3-2.5,3.1C222.1,145.3,212.8,135.5,203.1,126.2z"/>
			<path class="st4" d="M274.3,149.2c-18.4,2-28.3-18.1-30.5-33.4c-1.2-7.1-1.8-10.7-2.9-17.8c-4.2-22.1,7.1-39.3,30-41.3
				c23-2,37.1,13,36.7,35.6c0,7.2,0,10.8,0,18c0.2,14.2-3.9,36.9-22.3,37.9c-2.5,0.3-3-4.3-0.5-4.6c15.7-2.5,19.4-19.7,18.5-33.3
				c-0.1-7.2-0.1-10.8-0.2-18c0.2-19.8-11.6-32.7-31.9-31s-29.8,16.5-26.2,36c1.1,7.1,1.7,10.7,2.9,17.8
				c1.7,13.2,9.7,31.3,25.8,29.4c3.2-0.4,6.6,1.5,6.9,6.2c0.2,3-3.3,3.2-3.7,0.3C276.8,149.5,275.8,149,274.3,149.2z"/>
			<path class="st4" d="M346.4,145.1c-7.3-29.6-16.5-58.3-27.8-86.6c-1.1-2.8,3.2-4.5,4.5-1.7c11,28.5,19.9,57.2,26.9,86.9
				c0.9,3.6,3.5,2.3,3.8,0.2c3.4-26.1,6.8-52.1,10.3-78.2c1-7.3,11.7-8.1,13.6-0.9c6.9,28.8,11.9,57.6,15,87
				c0.4,3.1,3.2,2.6,3.7,0.4c6.6-25.5,13.3-51,19.9-76.6c0.9-3.6,4.7-5.7,8.4-4.7c3.1,0.9,1.9,5.3-1.2,4.5c-1-0.3-2.2,0.4-2.5,1.5
				c-7,25.4-13.9,50.9-20.9,76.3c-1.9,7.1-10.5,7.4-11.2-0.4c-3.3-29.4-8.6-58.1-15.7-86.8c-0.8-2.1-4.2-2.1-4.5,0.4
				c-3.7,26-7.4,52-11.1,78.1C356.6,151.7,348.3,153.1,346.4,145.1z"/>
			<path class="st4" d="M482.7,98.9c1-2.2-1.9-4.2-3.8-2.5c-21.7,20.4-41.6,42-60.3,65.2c-2.3,3-5.3,3-7.1,1.9
				c-1.4-0.9-2-2.4-0.9-3.9c1.4-1.9,2.8-0.2,3.4,0s1.3-0.1,1.9-0.8c18.5-23.4,38.3-45.2,59.8-65.8c5.4-5.2,14.5,1.2,11.4,7.9
				c-11,23.9-21.9,47.9-32.9,71.8c-1,2.2,1.2,3.9,2.9,2.4c21.3-20.9,43.7-40,67.6-57.8c2.8-2.1,6.2-1.2,8.4,0.3
				c1.9,1.4,2.7,3.5,0.9,4.7c-2,1.3-3.4-0.8-4-1.2c-0.7-0.4-1.6-0.5-2.3,0c-24.2,17.5-46.7,36.4-68.2,57.1
				c-5.1,4.9-11.9-0.3-8.8-7.2C461.3,147,472,122.9,482.7,98.9z"/>
		</g>
	</g>
</g>
</svg>
